<svg version="1.1" id="Layer_1" xmlns="http://www.w3.org/2000/svg" xmlns:xlink="http://www.w3.org/1999/xlink" x="0px" y="0px"
	 width="179.5px" height="39.6px" viewBox="0 0 179.5 39.6" style="enable-background:new 0 0 179.5 39.6;" xml:space="preserve">
<style type="text/css">
	.st0{fill:#FFFFFF;}
</style>
<g>
	<g>
		<path class="st0" d="M13.2,0.3c0.7,0,1.3,0,1.7-0.1v0.5c-0.8,0.2-1.4,0.8-1.8,2L7.6,16.8H7.4H7.3L1.6,2.2C1.2,1.3,0.7,0.8,0,0.7
			V0.3c0.6,0,1.5,0.1,2.5,0.1c1.3,0,2.3,0,3-0.1v0.5c-0.6,0-1,0.1-1.3,0.2C3.9,1.1,3.8,1.3,3.8,1.6c0,0.3,0.1,0.6,0.3,1.1l4.2,11.1
			L12.1,4c0.3-0.8,0.5-1.4,0.5-1.9c0-0.5-0.2-0.8-0.5-1.1c-0.3-0.2-0.8-0.3-1.5-0.3V0.3C11.4,0.3,12.3,0.3,13.2,0.3z"/>
		<path class="st0" d="M32,0.9c-0.3,0.1-0.4,0.3-0.5,0.5c-0.1,0.3-0.1,0.7-0.1,1.3v11.5c0,0.6,0,1,0.1,1.3c0.1,0.3,0.3,0.4,0.5,0.5
			c0.3,0.1,0.7,0.2,1.2,0.2v0.5c-0.7,0-1.7-0.1-2.9-0.1c-1.3,0-2.3,0-3,0.1v-0.5c0.6,0,1-0.1,1.2-0.2c0.3-0.1,0.4-0.3,0.5-0.5
			c0.1-0.3,0.1-0.7,0.1-1.3V2.7c0-0.6,0-1-0.1-1.3C29,1.2,28.8,1,28.5,0.9c-0.3-0.1-0.7-0.2-1.2-0.2V0.3c0.6,0,1.6,0.1,3,0.1
			c1.3,0,2.2,0,2.9-0.1v0.5C32.7,0.7,32.3,0.8,32,0.9z"/>
		<path class="st0" d="M51.5,0.9C51.2,1,51.1,1.2,51,1.5c-0.1,0.3-0.1,0.7-0.1,1.3v11.5c0,0.6,0,1,0.1,1.3c0.1,0.3,0.3,0.4,0.5,0.5
			c0.3,0.1,0.7,0.1,1.2,0.1h1.7c1,0,1.7-0.1,2.2-0.4c0.5-0.3,0.9-0.7,1.1-1.3c0.2-0.6,0.4-1.5,0.5-2.6h0.5c0,0.5-0.1,1.1-0.1,1.9
			c0,0.9,0.1,1.9,0.2,3c-1.1,0-2.8-0.1-5.3-0.1c-3,0-5.2,0-6.7,0.1v-0.5c0.6,0,1-0.1,1.2-0.2c0.3-0.1,0.4-0.3,0.5-0.5
			c0.1-0.3,0.1-0.7,0.1-1.3V2.7c0-0.6,0-1-0.1-1.3C48.4,1.2,48.3,1,48,0.9c-0.3-0.1-0.7-0.2-1.2-0.2V0.3c0.6,0,1.6,0.1,3,0.1
			c1.3,0,2.2,0,2.9-0.1v0.5C52.1,0.7,51.7,0.8,51.5,0.9z"/>
		<path class="st0" d="M76.7,0.9c-0.3,0.1-0.4,0.3-0.5,0.5c-0.1,0.3-0.1,0.7-0.1,1.3v11.5c0,0.6,0,1,0.1,1.3
			c0.1,0.3,0.3,0.4,0.5,0.5c0.3,0.1,0.7,0.1,1.2,0.1h1.7c1,0,1.7-0.1,2.2-0.4c0.5-0.3,0.9-0.7,1.1-1.3c0.2-0.6,0.4-1.5,0.5-2.6H84
			c0,0.5-0.1,1.1-0.1,1.9c0,0.9,0.1,1.9,0.2,3c-1.1,0-2.8-0.1-5.3-0.1c-3,0-5.2,0-6.7,0.1v-0.5c0.6,0,1-0.1,1.2-0.2
			c0.3-0.1,0.4-0.3,0.5-0.5c0.1-0.3,0.1-0.7,0.1-1.3V2.7c0-0.6,0-1-0.1-1.3c-0.1-0.3-0.3-0.4-0.5-0.5C73,0.8,72.6,0.7,72,0.7V0.3
			c0.6,0,1.6,0.1,3,0.1c1.3,0,2.2,0,2.9-0.1v0.5C77.4,0.7,77,0.8,76.7,0.9z"/>
		<path class="st0" d="M102,0.9c-0.3,0.1-0.4,0.3-0.5,0.5c-0.1,0.3-0.1,0.7-0.1,1.3v11.5c0,0.6,0,1,0.1,1.3c0.1,0.3,0.3,0.4,0.5,0.5
			c0.3,0.1,0.7,0.2,1.2,0.2v0.5c-0.7,0-1.7-0.1-2.9-0.1c-1.3,0-2.3,0-3,0.1v-0.5c0.6,0,1-0.1,1.2-0.2c0.3-0.1,0.4-0.3,0.5-0.5
			c0.1-0.3,0.1-0.7,0.1-1.3V2.7c0-0.6,0-1-0.1-1.3c-0.1-0.3-0.3-0.4-0.5-0.5c-0.3-0.1-0.7-0.2-1.2-0.2V0.3c0.6,0,1.6,0.1,3,0.1
			c1.3,0,2.2,0,2.9-0.1v0.5C102.6,0.7,102.2,0.8,102,0.9z"/>
		<path class="st0" d="M128.6,13.7c0,0.9,0.1,1.9,0.2,3c-1.1,0-2.8-0.1-5.3-0.1c-3,0-5.2,0-6.7,0.1v-0.5c0.6,0,1-0.1,1.2-0.2
			c0.3-0.1,0.4-0.3,0.5-0.5c0.1-0.3,0.1-0.7,0.1-1.3V2.7c0-0.6,0-1-0.1-1.3c-0.1-0.3-0.3-0.4-0.5-0.5c-0.3-0.1-0.7-0.2-1.2-0.2V0.3
			c1.5,0,3.8,0.1,6.7,0.1c2.3,0,3.9,0,4.8-0.1c-0.1,1-0.2,1.9-0.2,2.7c0,0.6,0,1.1,0.1,1.4h-0.5c-0.1-1-0.3-1.8-0.4-2.2
			c-0.2-0.5-0.5-0.8-0.9-1.1c-0.4-0.2-1-0.3-1.8-0.3h-1.9c-0.6,0-1,0-1.2,0.1c-0.3,0.1-0.4,0.3-0.5,0.5c-0.1,0.3-0.1,0.7-0.1,1.3
			v5.5h1.5c0.8,0,1.3-0.2,1.6-0.7c0.3-0.5,0.4-0.9,0.5-1.4c0.1-0.5,0.1-0.8,0.1-0.9h0.5c-0.1,0.8-0.1,1.5-0.1,2.2l0,1.1
			c0,0.8,0,1.9,0.1,3.3h-0.5c0-0.1-0.1-0.5-0.1-1.1c-0.1-0.6-0.3-1.1-0.6-1.5c-0.3-0.3-0.8-0.5-1.5-0.5h-1.5v5.6c0,0.6,0,1,0.1,1.3
			c0.1,0.3,0.3,0.4,0.5,0.5c0.3,0.1,0.7,0.1,1.2,0.1h1.7c1,0,1.7-0.1,2.2-0.4c0.5-0.3,0.9-0.7,1.1-1.2c0.2-0.6,0.4-1.4,0.5-2.5h0.5
			C128.6,12.5,128.6,13,128.6,13.7z"/>
		<path class="st0" d="M155.7,16.7c-0.4,0.2-0.8,0.4-1.4,0.4c-0.6,0-1.2-0.2-1.6-0.6c-0.4-0.4-0.7-1-0.9-2l-0.5-2.3
			c-0.2-0.8-0.4-1.4-0.5-1.9c-0.2-0.4-0.4-0.8-0.7-1c-0.3-0.3-0.8-0.4-1.4-0.4h-2.2v5.3c0,0.6,0,1,0.1,1.3c0.1,0.3,0.3,0.4,0.5,0.5
			c0.3,0.1,0.7,0.2,1.2,0.2v0.5c-0.7,0-1.7-0.1-2.9-0.1c-1.3,0-2.3,0-3,0.1v-0.5c0.6,0,1-0.1,1.2-0.2c0.3-0.1,0.4-0.3,0.5-0.5
			c0.1-0.3,0.1-0.7,0.1-1.3V2.7c0-0.6,0-1-0.1-1.3c-0.1-0.3-0.3-0.4-0.5-0.5c-0.3-0.1-0.7-0.2-1.2-0.2V0.3c0.6,0,1.6,0.1,2.8,0.1
			c0.6,0,1.3,0,2,0c0.7,0,1.2,0,1.5,0c1.2,0,2.2,0.2,3.1,0.5c0.8,0.4,1.5,0.8,1.9,1.4c0.4,0.6,0.6,1.3,0.6,2.1
			c0,0.6-0.1,1.2-0.4,1.8c-0.3,0.6-0.8,1.2-1.4,1.7s-1.6,0.8-2.6,1l0.3,0c0.7,0.1,1.2,0.3,1.7,0.5c0.4,0.2,0.7,0.5,1,0.9
			c0.2,0.4,0.4,0.9,0.6,1.6l0.6,2.4c0.1,0.5,0.2,0.8,0.3,1.1c0.1,0.3,0.2,0.5,0.4,0.6c0.1,0.1,0.3,0.2,0.5,0.2
			c0.3,0,0.5-0.1,0.6-0.2c0.2-0.1,0.4-0.4,0.6-0.7l0.4,0.3C156.5,16.1,156.1,16.4,155.7,16.7z M150.5,7.9c0.6-0.3,1-0.8,1.2-1.3
			c0.2-0.6,0.3-1.2,0.3-2c0-1.3-0.3-2.2-0.9-2.9c-0.6-0.6-1.6-1-2.9-1c-0.5,0-0.8,0.1-1.1,0.2c-0.2,0.1-0.4,0.3-0.5,0.6
			c-0.1,0.3-0.1,0.7-0.1,1.2v5.7h1.6C149.1,8.4,149.9,8.3,150.5,7.9z"/>
		<path class="st0" d="M171.4,15.1c0.7,1,1.7,1.5,3.1,1.5c0.5,0,1-0.1,1.5-0.3c0.5-0.2,0.8-0.6,1.1-1c0.3-0.5,0.4-1,0.4-1.7
			c0-0.6-0.1-1.1-0.4-1.6c-0.3-0.5-0.7-0.9-1.2-1.3c-0.5-0.4-1.2-0.8-2-1.3c-0.9-0.6-1.7-1-2.2-1.5c-0.6-0.4-1-1-1.4-1.6
			c-0.4-0.6-0.5-1.3-0.5-2.1c0-0.9,0.2-1.6,0.6-2.2c0.4-0.6,0.9-1.1,1.6-1.4c0.7-0.3,1.4-0.4,2.2-0.4c0.5,0,0.9,0,1.2,0.1
			c0.3,0.1,0.6,0.2,0.9,0.3c0.2,0.1,0.5,0.3,0.7,0.4c0.3,0.2,0.6,0.3,0.8,0.3c0.1,0,0.3-0.1,0.3-0.2c0.1-0.2,0.1-0.4,0.2-0.8h0.5
			c-0.1,0.9-0.1,2.5-0.1,4.7h-0.5c-0.1-0.8-0.2-1.5-0.5-2.2c-0.3-0.7-0.7-1.2-1.2-1.6c-0.5-0.4-1.2-0.6-2-0.6c-0.5,0-1,0.1-1.5,0.3
			c-0.4,0.2-0.8,0.5-1,1c-0.2,0.4-0.4,0.9-0.4,1.4c0,0.8,0.3,1.5,0.8,2c0.5,0.5,1.1,1,1.8,1.4c0.7,0.4,1.1,0.7,1.4,0.8
			c1,0.6,1.7,1.1,2.3,1.6c0.6,0.4,1,1,1.4,1.6c0.3,0.6,0.5,1.3,0.5,2.1c0,1-0.2,1.8-0.7,2.4c-0.4,0.7-1,1.2-1.8,1.5
			c-0.7,0.3-1.6,0.5-2.5,0.5c-0.7,0-1.3-0.1-1.8-0.2c-0.5-0.2-0.9-0.4-1.3-0.6c-0.3-0.2-0.6-0.3-0.8-0.3c-0.1,0-0.3,0.1-0.3,0.2
			c-0.1,0.2-0.1,0.4-0.2,0.8h-0.5c0.1-0.8,0.1-2.7,0.1-5.6h0.5C170.3,12.9,170.7,14.1,171.4,15.1z"/>
	</g>
	<g>
		<path class="st0" d="M58.4,32.8c-0.1,0-0.2,0.1-0.2,0.2c0,0.1-0.1,0.3-0.1,0.5v4.8c0,0.2,0,0.4,0.1,0.5c0,0.1,0.1,0.2,0.2,0.2
			c0.1,0,0.3,0.1,0.5,0.1h0.7c0.4,0,0.7-0.1,0.9-0.2c0.2-0.1,0.4-0.3,0.5-0.5c0.1-0.2,0.2-0.6,0.2-1.1h0.2c0,0.2,0,0.5,0,0.8
			c0,0.4,0,0.8,0.1,1.2c-0.4,0-1.2,0-2.2,0c-1.2,0-2.2,0-2.8,0v-0.2c0.2,0,0.4,0,0.5-0.1s0.2-0.1,0.2-0.2c0-0.1,0.1-0.3,0.1-0.5
			v-4.8c0-0.2,0-0.4-0.1-0.5c0-0.1-0.1-0.2-0.2-0.2s-0.3-0.1-0.5-0.1v-0.2c0.3,0,0.7,0,1.2,0c0.5,0,0.9,0,1.2,0v0.2
			C58.7,32.8,58.5,32.8,58.4,32.8z"/>
		<path class="st0" d="M72.3,32.8c0.5,0.3,0.8,0.7,1.1,1.2c0.3,0.5,0.4,1.2,0.4,1.9c0,0.7-0.1,1.3-0.4,1.9c-0.3,0.5-0.6,1-1.1,1.3
			c-0.5,0.3-1,0.5-1.6,0.5c-0.6,0-1.2-0.1-1.6-0.4c-0.5-0.3-0.8-0.7-1.1-1.2c-0.3-0.5-0.4-1.2-0.4-1.9c0-0.7,0.1-1.3,0.4-1.9
			c0.3-0.5,0.6-1,1.1-1.3c0.5-0.3,1-0.5,1.6-0.5C71.3,32.4,71.9,32.6,72.3,32.8z M69.6,33c-0.3,0.3-0.6,0.7-0.7,1.2
			c-0.2,0.5-0.3,1.1-0.3,1.8c0,0.7,0.1,1.3,0.3,1.8c0.2,0.5,0.4,0.9,0.8,1.2c0.3,0.3,0.7,0.4,1.1,0.4c0.4,0,0.8-0.1,1.1-0.4
			c0.3-0.3,0.6-0.7,0.7-1.2c0.2-0.5,0.3-1.1,0.3-1.8c0-0.7-0.1-1.3-0.3-1.8c-0.2-0.5-0.4-0.9-0.8-1.2c-0.3-0.3-0.7-0.4-1.1-0.4
			C70.3,32.6,69.9,32.7,69.6,33z"/>
		<path class="st0" d="M85.6,32.9c-0.1,0.1-0.2,0.1-0.2,0.3c0,0.1-0.1,0.3-0.1,0.6v5.8h-0.2L81,33.2v5.1c0,0.2,0,0.4,0.1,0.6
			c0,0.1,0.1,0.2,0.2,0.3c0.1,0.1,0.3,0.1,0.6,0.1v0.2c-0.2,0-0.6,0-1,0c-0.4,0-0.7,0-0.9,0v-0.2c0.2,0,0.4,0,0.5-0.1
			c0.1-0.1,0.2-0.1,0.2-0.3c0-0.1,0.1-0.3,0.1-0.6v-4.7c0-0.2,0-0.4-0.1-0.5c0-0.1-0.1-0.2-0.2-0.2s-0.3-0.1-0.5-0.1v-0.2
			c0.2,0,0.5,0,0.9,0c0.3,0,0.5,0,0.8,0l3.4,5.3v-4.2c0-0.2,0-0.4-0.1-0.6c0-0.1-0.1-0.2-0.2-0.3c-0.1-0.1-0.3-0.1-0.6-0.1v-0.2
			c0.2,0,0.6,0,1,0c0.4,0,0.7,0,0.9,0v0.2C85.8,32.8,85.7,32.8,85.6,32.9z"/>
		<path class="st0" d="M93.1,32.6l0.2,0c0.9,0,1.4,0,1.5,0c1.1,0,2,0.3,2.6,0.9c0.6,0.6,0.9,1.4,0.9,2.5c0,0.7-0.1,1.3-0.4,1.9
			c-0.3,0.5-0.7,0.9-1.2,1.2c-0.5,0.3-1.2,0.4-1.9,0.4c-0.1,0-0.3,0-0.6,0c-0.3,0-0.6,0-0.7,0c-0.5,0-0.9,0-1.2,0v-0.2
			c0.2,0,0.4,0,0.5-0.1c0.1,0,0.2-0.1,0.2-0.2c0-0.1,0.1-0.3,0.1-0.5v-4.8c0-0.2,0-0.4-0.1-0.5c0-0.1-0.1-0.2-0.2-0.2
			c-0.1,0-0.3-0.1-0.5-0.1v-0.2C92.5,32.6,92.8,32.6,93.1,32.6z M93.9,38.9c0,0.1,0.1,0.2,0.2,0.2c0.1,0,0.3,0.1,0.5,0.1
			c0.7,0,1.2-0.1,1.6-0.4c0.4-0.2,0.7-0.6,0.8-1.1c0.2-0.5,0.2-1.1,0.2-1.8c0-0.7-0.1-1.4-0.3-1.8c-0.2-0.5-0.5-0.8-0.9-1.1
			c-0.4-0.2-0.9-0.3-1.6-0.3c-0.2,0-0.4,0-0.5,0.1c-0.1,0-0.2,0.1-0.2,0.2c0,0.1-0.1,0.3-0.1,0.5v4.9C93.8,38.7,93.9,38.8,93.9,38.9
			z"/>
		<path class="st0" d="M109.3,32.8c0.5,0.3,0.8,0.7,1.1,1.2c0.3,0.5,0.4,1.2,0.4,1.9c0,0.7-0.1,1.3-0.4,1.9c-0.3,0.5-0.6,1-1.1,1.3
			c-0.5,0.3-1,0.5-1.6,0.5c-0.6,0-1.2-0.1-1.6-0.4c-0.5-0.3-0.8-0.7-1.1-1.2c-0.3-0.5-0.4-1.2-0.4-1.9c0-0.7,0.1-1.3,0.4-1.9
			c0.3-0.5,0.6-1,1.1-1.3c0.5-0.3,1-0.5,1.6-0.5C108.3,32.4,108.9,32.6,109.3,32.8z M106.6,33c-0.3,0.3-0.6,0.7-0.7,1.2
			c-0.2,0.5-0.3,1.1-0.3,1.8c0,0.7,0.1,1.3,0.3,1.8c0.2,0.5,0.4,0.9,0.8,1.2c0.3,0.3,0.7,0.4,1.1,0.4c0.4,0,0.8-0.1,1.1-0.4
			c0.3-0.3,0.6-0.7,0.7-1.2c0.2-0.5,0.3-1.1,0.3-1.8c0-0.7-0.1-1.3-0.3-1.8c-0.2-0.5-0.4-0.9-0.8-1.2c-0.3-0.3-0.7-0.4-1.1-0.4
			C107.3,32.6,106.9,32.7,106.6,33z"/>
		<path class="st0" d="M122.6,32.9c-0.1,0.1-0.2,0.1-0.2,0.3c0,0.1-0.1,0.3-0.1,0.6v5.8H122l-4.1-6.3v5.1c0,0.2,0,0.4,0.1,0.6
			c0,0.1,0.1,0.2,0.2,0.3c0.1,0.1,0.3,0.1,0.6,0.1v0.2c-0.2,0-0.6,0-1,0c-0.4,0-0.7,0-0.9,0v-0.2c0.2,0,0.4,0,0.5-0.1
			c0.1-0.1,0.2-0.1,0.2-0.3c0-0.1,0.1-0.3,0.1-0.6v-4.7c0-0.2,0-0.4-0.1-0.5c0-0.1-0.1-0.2-0.2-0.2s-0.3-0.1-0.5-0.1v-0.2
			c0.2,0,0.5,0,0.9,0c0.3,0,0.5,0,0.8,0l3.4,5.3v-4.2c0-0.2,0-0.4-0.1-0.6c0-0.1-0.1-0.2-0.2-0.3c-0.1-0.1-0.3-0.1-0.6-0.1v-0.2
			c0.2,0,0.6,0,1,0c0.4,0,0.7,0,0.9,0v0.2C122.8,32.8,122.7,32.8,122.6,32.9z"/>
	</g>
</g>
<g id="XMLID_27_">
</g>
<g id="XMLID_28_">
</g>
<g id="XMLID_29_">
</g>
<g id="XMLID_30_">
</g>
<g id="XMLID_31_">
</g>
<g id="XMLID_32_">
</g>
<g id="XMLID_33_">
</g>
<g id="XMLID_34_">
</g>
<g id="XMLID_35_">
</g>
<g id="XMLID_36_">
</g>
<g id="XMLID_37_">
</g>
<g id="XMLID_38_">
</g>
<g id="XMLID_39_">
</g>
<g id="XMLID_40_">
</g>
<g id="XMLID_41_">
</g>
</svg>
