<?xml version="1.0" encoding="utf-8"?>
<!-- Generator: Adobe Illustrator 19.0.0, SVG Export Plug-In . SVG Version: 6.00 Build 0)  -->
<svg version="1.1" id="Layer_1" xmlns="http://www.w3.org/2000/svg" xmlns:xlink="http://www.w3.org/1999/xlink" x="0px" y="0px"
	 width="51.6px" height="55.6px" viewBox="0 0 51.6 55.6" style="enable-background:new 0 0 51.6 55.6;" xml:space="preserve">
<style type="text/css">
	.st0{fill:#B37C57;}
</style>
<g>
	<path class="st0" d="M18.3,13.7c4.7-2.4,8.9-4.9,12.6-7.2c-1.9-0.2-4-0.4-6-0.7C14.9,4.5,6.1,2.4,0,0c3.2,4,7.2,10,11.4,17
		C13.6,16,15.9,14.9,18.3,13.7z"/>
	<path class="st0" d="M35.8,21c0.2,3.7,0.6,7.1,1.3,10.1c0.1-0.3,0.2-0.6,0.4-0.9c4.4-10.3,9.7-18.9,14.1-23.8
		c-4,0.6-9.2,0.7-15.2,0.4C35.8,10.9,35.6,15.9,35.8,21z"/>
	<path class="st0" d="M19.5,28.5c-0.7-0.3-1.4-0.5-2.1-0.8C23.4,38.8,27.9,49,30,55.6c0.6-5.3,2.4-12.3,5.3-19.9
		C31.2,33.5,25.7,30.9,19.5,28.5z"/>
</g>
</svg>
