<?xml version="1.0" encoding="utf-8"?>
<!-- Generator: Adobe Illustrator 19.0.0, SVG Export Plug-In . SVG Version: 6.00 Build 0)  -->
<svg version="1.1" id="Layer_1" xmlns="http://www.w3.org/2000/svg" xmlns:xlink="http://www.w3.org/1999/xlink" x="0px" y="0px"
	 width="170.2px" height="109.5px" viewBox="0 0 170.2 109.5" style="enable-background:new 0 0 170.2 109.5;" xml:space="preserve"
	>
<style type="text/css">
	.st0{fill:#FFFFFF;}
	.st1{fill:#B37C57;}
</style>
<g>
	<g>
		<path class="st0" d="M12.5,72.3c0.7,0,1.2,0,1.7-0.1v0.4c-0.7,0.2-1.3,0.8-1.7,1.9L7.2,87.9H7.1H6.9L1.5,74
			c-0.4-0.9-0.9-1.4-1.5-1.4v-0.4c0.6,0,1.4,0.1,2.4,0.1c1.3,0,2.2,0,2.8-0.1v0.4c-0.6,0-1,0.1-1.2,0.2c-0.2,0.1-0.4,0.3-0.4,0.6
			c0,0.2,0.1,0.6,0.3,1l4,10.6l3.6-9.3c0.3-0.8,0.4-1.4,0.4-1.8c0-0.5-0.2-0.8-0.5-1c-0.3-0.2-0.8-0.3-1.5-0.3v-0.4
			C10.8,72.2,11.6,72.3,12.5,72.3z"/>
		<path class="st0" d="M30.4,72.8c-0.2,0.1-0.4,0.3-0.5,0.5c-0.1,0.3-0.1,0.7-0.1,1.2v10.9c0,0.6,0,1,0.1,1.2
			c0.1,0.3,0.3,0.4,0.5,0.5c0.2,0.1,0.6,0.2,1.2,0.2v0.4c-0.7,0-1.6-0.1-2.8-0.1c-1.3,0-2.2,0-2.8,0.1v-0.4c0.5,0,0.9-0.1,1.2-0.2
			c0.2-0.1,0.4-0.3,0.5-0.5c0.1-0.3,0.1-0.7,0.1-1.2V74.5c0-0.6,0-1-0.1-1.2c-0.1-0.3-0.3-0.4-0.5-0.5c-0.2-0.1-0.6-0.2-1.2-0.2
			v-0.4c0.6,0,1.5,0.1,2.8,0.1c1.2,0,2.1,0,2.8-0.1v0.4C31,72.7,30.6,72.7,30.4,72.8z"/>
		<path class="st0" d="M48.8,72.8c-0.2,0.1-0.4,0.3-0.5,0.5c-0.1,0.3-0.1,0.7-0.1,1.2v10.9c0,0.6,0,1,0.1,1.2
			c0.1,0.2,0.3,0.4,0.5,0.5c0.2,0.1,0.6,0.1,1.2,0.1h1.6c0.9,0,1.6-0.1,2.1-0.4c0.5-0.3,0.8-0.7,1-1.2c0.2-0.6,0.4-1.4,0.5-2.5h0.5
			c0,0.5-0.1,1.1-0.1,1.8c0,0.8,0.1,1.8,0.2,2.8c-1,0-2.7-0.1-5-0.1c-2.8,0-4.9,0-6.4,0.1v-0.4c0.5,0,0.9-0.1,1.2-0.2
			c0.2-0.1,0.4-0.3,0.5-0.5c0.1-0.3,0.1-0.7,0.1-1.2V74.5c0-0.6,0-1-0.1-1.2c-0.1-0.3-0.3-0.4-0.5-0.5c-0.2-0.1-0.6-0.2-1.2-0.2
			v-0.4c0.6,0,1.5,0.1,2.8,0.1c1.2,0,2.1,0,2.8-0.1v0.4C49.4,72.7,49,72.7,48.8,72.8z"/>
		<path class="st0" d="M72.7,72.8c-0.2,0.1-0.4,0.3-0.5,0.5c-0.1,0.3-0.1,0.7-0.1,1.2v10.9c0,0.6,0,1,0.1,1.2
			c0.1,0.2,0.3,0.4,0.5,0.5c0.2,0.1,0.6,0.1,1.2,0.1h1.6c0.9,0,1.6-0.1,2.1-0.4c0.5-0.3,0.8-0.7,1-1.2c0.2-0.6,0.4-1.4,0.5-2.5h0.5
			c0,0.5-0.1,1.1-0.1,1.8c0,0.8,0.1,1.8,0.2,2.8c-1,0-2.7-0.1-5-0.1c-2.8,0-4.9,0-6.4,0.1v-0.4c0.5,0,0.9-0.1,1.2-0.2
			c0.2-0.1,0.4-0.3,0.5-0.5c0.1-0.3,0.1-0.7,0.1-1.2V74.5c0-0.6,0-1-0.1-1.2c-0.1-0.3-0.3-0.4-0.5-0.5c-0.2-0.1-0.6-0.2-1.2-0.2
			v-0.4c0.6,0,1.5,0.1,2.8,0.1c1.2,0,2.1,0,2.8-0.1v0.4C73.4,72.7,73,72.7,72.7,72.8z"/>
		<path class="st0" d="M96.7,72.8c-0.2,0.1-0.4,0.3-0.5,0.5C96.1,73.6,96,74,96,74.5v10.9c0,0.6,0,1,0.1,1.2
			c0.1,0.3,0.3,0.4,0.5,0.5c0.2,0.1,0.6,0.2,1.2,0.2v0.4c-0.7,0-1.6-0.1-2.8-0.1c-1.3,0-2.2,0-2.8,0.1v-0.4c0.5,0,0.9-0.1,1.2-0.2
			c0.2-0.1,0.4-0.3,0.5-0.5C94,86.4,94,86,94,85.4V74.5c0-0.6,0-1-0.1-1.2c-0.1-0.3-0.3-0.4-0.5-0.5c-0.2-0.1-0.6-0.2-1.2-0.2v-0.4
			c0.6,0,1.5,0.1,2.8,0.1c1.2,0,2.1,0,2.8-0.1v0.4C97.3,72.7,96.9,72.7,96.7,72.8z"/>
		<path class="st0" d="M121.9,85c0,0.8,0.1,1.8,0.2,2.8c-1,0-2.7-0.1-5-0.1c-2.8,0-4.9,0-6.4,0.1v-0.4c0.5,0,0.9-0.1,1.2-0.2
			c0.2-0.1,0.4-0.3,0.5-0.5c0.1-0.3,0.1-0.7,0.1-1.2V74.5c0-0.6,0-1-0.1-1.2c-0.1-0.3-0.3-0.4-0.5-0.5c-0.2-0.1-0.6-0.2-1.2-0.2
			v-0.4c1.4,0,3.6,0.1,6.4,0.1c2.2,0,3.7,0,4.6-0.1c-0.1,1-0.2,1.8-0.2,2.6c0,0.6,0,1,0.1,1.4h-0.5c-0.1-1-0.2-1.7-0.4-2.1
			c-0.2-0.5-0.4-0.8-0.8-1c-0.4-0.2-1-0.3-1.7-0.3h-1.8c-0.5,0-0.9,0-1.2,0.1c-0.2,0.1-0.4,0.3-0.5,0.5c-0.1,0.2-0.1,0.6-0.1,1.2
			v5.2h1.5c0.7,0,1.2-0.2,1.5-0.7c0.2-0.4,0.4-0.9,0.5-1.3c0.1-0.5,0.1-0.8,0.1-0.9h0.5c-0.1,0.7-0.1,1.4-0.1,2.1l0,1.1
			c0,0.7,0,1.8,0.1,3.1h-0.5c0-0.1-0.1-0.5-0.1-1.1s-0.3-1.1-0.6-1.4s-0.8-0.5-1.4-0.5h-1.5v5.3c0,0.6,0,1,0.1,1.2
			c0.1,0.2,0.3,0.4,0.5,0.5c0.2,0.1,0.6,0.1,1.2,0.1h1.6c0.9,0,1.6-0.1,2.1-0.4c0.5-0.2,0.8-0.6,1-1.2c0.2-0.5,0.4-1.3,0.5-2.4h0.5
			C122,83.8,121.9,84.3,121.9,85z"/>
		<path class="st0" d="M147.7,87.8c-0.3,0.2-0.8,0.3-1.3,0.3c-0.6,0-1.1-0.2-1.5-0.5c-0.4-0.4-0.7-1-0.9-1.9l-0.5-2.2
			c-0.2-0.8-0.3-1.4-0.5-1.8c-0.2-0.4-0.4-0.7-0.7-1c-0.3-0.2-0.7-0.4-1.3-0.4h-2.1v5.1c0,0.6,0,1,0.1,1.2c0.1,0.3,0.3,0.4,0.5,0.5
			c0.2,0.1,0.6,0.2,1.2,0.2v0.4c-0.7,0-1.6-0.1-2.8-0.1c-1.3,0-2.2,0-2.8,0.1v-0.4c0.5,0,0.9-0.1,1.2-0.2c0.2-0.1,0.4-0.3,0.5-0.5
			c0.1-0.3,0.1-0.7,0.1-1.2V74.5c0-0.6,0-1-0.1-1.2c-0.1-0.3-0.3-0.4-0.5-0.5c-0.2-0.1-0.6-0.2-1.2-0.2v-0.4c0.6,0,1.5,0.1,2.7,0.1
			c0.6,0,1.2,0,1.9,0c0.7,0,1.2,0,1.4,0c1.1,0,2.1,0.2,2.9,0.5c0.8,0.3,1.4,0.8,1.8,1.4c0.4,0.6,0.6,1.2,0.6,2
			c0,0.6-0.1,1.2-0.4,1.7c-0.3,0.6-0.7,1.1-1.4,1.6s-1.5,0.8-2.5,0.9l0.3,0c0.7,0.1,1.2,0.3,1.6,0.5c0.4,0.2,0.7,0.5,0.9,0.9
			c0.2,0.4,0.4,0.9,0.6,1.5l0.5,2.2c0.1,0.5,0.2,0.8,0.3,1.1c0.1,0.3,0.2,0.4,0.3,0.6c0.1,0.1,0.3,0.2,0.5,0.2
			c0.2,0,0.4-0.1,0.6-0.2c0.2-0.1,0.4-0.3,0.6-0.6l0.3,0.2C148.3,87.2,148,87.5,147.7,87.8z M142.7,79.5c0.6-0.3,0.9-0.7,1.2-1.3
			c0.2-0.5,0.3-1.2,0.3-1.9c0-1.2-0.3-2.1-0.9-2.7c-0.6-0.6-1.5-0.9-2.8-0.9c-0.5,0-0.8,0.1-1,0.2c-0.2,0.1-0.4,0.3-0.5,0.6
			c-0.1,0.3-0.1,0.7-0.1,1.2v5.4h1.5C141.4,79.9,142.1,79.8,142.7,79.5z"/>
		<path class="st0" d="M162.5,86.3c0.6,0.9,1.6,1.4,2.9,1.4c0.5,0,1-0.1,1.4-0.3c0.4-0.2,0.8-0.5,1.1-1c0.3-0.4,0.4-1,0.4-1.6
			c0-0.6-0.1-1.1-0.4-1.5c-0.3-0.4-0.6-0.9-1.1-1.2c-0.5-0.4-1.1-0.8-1.9-1.3c-0.9-0.5-1.6-1-2.1-1.4c-0.5-0.4-1-0.9-1.3-1.5
			c-0.3-0.6-0.5-1.3-0.5-2c0-0.8,0.2-1.5,0.6-2.1c0.4-0.6,0.9-1,1.5-1.3c0.6-0.3,1.3-0.4,2.1-0.4c0.5,0,0.8,0,1.2,0.1
			c0.3,0.1,0.6,0.2,0.8,0.3c0.2,0.1,0.5,0.3,0.7,0.4c0.3,0.2,0.6,0.3,0.8,0.3c0.1,0,0.2-0.1,0.3-0.2c0.1-0.2,0.1-0.4,0.2-0.7h0.5
			c-0.1,0.9-0.1,2.4-0.1,4.5h-0.5c-0.1-0.8-0.2-1.4-0.5-2.1c-0.3-0.6-0.7-1.2-1.2-1.6c-0.5-0.4-1.2-0.6-1.9-0.6
			c-0.5,0-1,0.1-1.4,0.3c-0.4,0.2-0.7,0.5-1,0.9c-0.2,0.4-0.3,0.8-0.3,1.3c0,0.8,0.2,1.4,0.7,1.9c0.5,0.5,1,0.9,1.7,1.3
			c0.6,0.4,1.1,0.7,1.3,0.8c0.9,0.6,1.7,1.1,2.2,1.5c0.5,0.4,1,0.9,1.3,1.5c0.3,0.6,0.5,1.2,0.5,2c0,0.9-0.2,1.7-0.6,2.3
			c-0.4,0.6-1,1.1-1.7,1.4c-0.7,0.3-1.5,0.5-2.4,0.5c-0.7,0-1.3-0.1-1.7-0.2c-0.5-0.1-0.9-0.3-1.3-0.6c-0.3-0.2-0.6-0.3-0.8-0.3
			c-0.1,0-0.2,0.1-0.3,0.2c-0.1,0.2-0.1,0.4-0.2,0.7h-0.5c0.1-0.8,0.1-2.6,0.1-5.3h0.5C161.5,84.1,161.8,85.3,162.5,86.3z"/>
	</g>
	<g>
		<path class="st0" d="M55.4,103.1c-0.1,0-0.2,0.1-0.2,0.2c0,0.1-0.1,0.3-0.1,0.5v4.6c0,0.2,0,0.4,0.1,0.5c0,0.1,0.1,0.2,0.2,0.2
			c0.1,0,0.3,0.1,0.5,0.1h0.7c0.4,0,0.7-0.1,0.9-0.2s0.3-0.3,0.4-0.5c0.1-0.2,0.2-0.6,0.2-1h0.2c0,0.2,0,0.4,0,0.8
			c0,0.3,0,0.7,0.1,1.2c-0.4,0-1.1,0-2.1,0c-1.2,0-2.1,0-2.7,0v-0.2c0.2,0,0.4,0,0.5-0.1c0.1,0,0.2-0.1,0.2-0.2
			c0-0.1,0.1-0.3,0.1-0.5v-4.6c0-0.2,0-0.4-0.1-0.5c0-0.1-0.1-0.2-0.2-0.2c-0.1,0-0.3-0.1-0.5-0.1v-0.2c0.3,0,0.6,0,1.2,0
			c0.5,0,0.9,0,1.2,0v0.2C55.7,103,55.5,103,55.4,103.1z"/>
		<path class="st0" d="M68.6,103.1c0.4,0.3,0.8,0.6,1,1.1c0.2,0.5,0.4,1.1,0.4,1.8c0,0.7-0.1,1.3-0.4,1.8c-0.2,0.5-0.6,0.9-1,1.2
			c-0.4,0.3-0.9,0.4-1.5,0.4c-0.6,0-1.1-0.1-1.5-0.4c-0.4-0.3-0.8-0.6-1-1.1c-0.2-0.5-0.4-1.1-0.4-1.8c0-0.7,0.1-1.3,0.4-1.8
			c0.2-0.5,0.6-0.9,1-1.2c0.4-0.3,0.9-0.4,1.5-0.4C67.6,102.7,68.1,102.8,68.6,103.1z M66,103.3c-0.3,0.3-0.5,0.7-0.7,1.1
			c-0.2,0.5-0.2,1.1-0.2,1.7c0,0.6,0.1,1.2,0.3,1.7c0.2,0.5,0.4,0.9,0.7,1.1c0.3,0.3,0.7,0.4,1,0.4c0.4,0,0.7-0.1,1-0.4
			c0.3-0.3,0.5-0.7,0.7-1.1c0.2-0.5,0.2-1.1,0.2-1.7c0-0.6-0.1-1.2-0.3-1.7c-0.2-0.5-0.4-0.9-0.7-1.1c-0.3-0.3-0.7-0.4-1-0.4
			C66.6,102.9,66.3,103,66,103.3z"/>
		<path class="st0" d="M81.1,103.1c-0.1,0.1-0.2,0.1-0.2,0.3c0,0.1-0.1,0.3-0.1,0.5v5.5h-0.2l-3.9-6v4.9c0,0.2,0,0.4,0.1,0.5
			c0,0.1,0.1,0.2,0.2,0.3c0.1,0.1,0.3,0.1,0.5,0.1v0.2c-0.2,0-0.5,0-0.9,0c-0.4,0-0.6,0-0.9,0v-0.2c0.2,0,0.4,0,0.5-0.1
			c0.1-0.1,0.2-0.1,0.2-0.3c0-0.1,0.1-0.3,0.1-0.5v-4.5c0-0.2,0-0.4-0.1-0.5c0-0.1-0.1-0.2-0.2-0.2c-0.1,0-0.3-0.1-0.5-0.1v-0.2
			c0.2,0,0.5,0,0.9,0c0.3,0,0.5,0,0.7,0l3.2,5v-3.9c0-0.2,0-0.4-0.1-0.5c0-0.1-0.1-0.2-0.2-0.3c-0.1-0.1-0.3-0.1-0.5-0.1v-0.2
			c0.2,0,0.5,0,0.9,0c0.4,0,0.6,0,0.9,0v0.2C81.4,103,81.2,103,81.1,103.1z"/>
		<path class="st0" d="M88.3,102.9l0.2,0c0.8,0,1.3,0,1.4,0c1.1,0,1.9,0.3,2.4,0.8c0.5,0.5,0.8,1.3,0.8,2.4c0,0.7-0.1,1.3-0.4,1.8
			c-0.3,0.5-0.6,0.9-1.1,1.2c-0.5,0.3-1.1,0.4-1.8,0.4c-0.1,0-0.3,0-0.6,0c-0.3,0-0.5,0-0.7,0c-0.5,0-0.9,0-1.1,0v-0.2
			c0.2,0,0.4,0,0.5-0.1c0.1,0,0.2-0.1,0.2-0.2c0-0.1,0.1-0.3,0.1-0.5v-4.6c0-0.2,0-0.4-0.1-0.5c0-0.1-0.1-0.2-0.2-0.2
			c-0.1,0-0.3-0.1-0.5-0.1v-0.2C87.7,102.8,88,102.9,88.3,102.9z M89,108.9c0,0.1,0.1,0.2,0.2,0.2c0.1,0,0.2,0.1,0.4,0.1
			c0.7,0,1.2-0.1,1.5-0.4c0.4-0.2,0.6-0.6,0.8-1c0.2-0.5,0.2-1,0.2-1.7c0-0.7-0.1-1.3-0.2-1.7c-0.2-0.4-0.4-0.8-0.8-1
			c-0.4-0.2-0.9-0.3-1.5-0.3c-0.2,0-0.3,0-0.4,0.1s-0.2,0.1-0.2,0.2c0,0.1-0.1,0.3-0.1,0.5v4.6C89,108.6,89,108.8,89,108.9z"/>
		<path class="st0" d="M103.6,103.1c0.4,0.3,0.8,0.6,1,1.1c0.2,0.5,0.4,1.1,0.4,1.8c0,0.7-0.1,1.3-0.4,1.8c-0.2,0.5-0.6,0.9-1,1.2
			c-0.4,0.3-0.9,0.4-1.5,0.4c-0.6,0-1.1-0.1-1.5-0.4c-0.4-0.3-0.8-0.6-1-1.1c-0.2-0.5-0.4-1.1-0.4-1.8c0-0.7,0.1-1.3,0.4-1.8
			c0.2-0.5,0.6-0.9,1-1.2c0.4-0.3,0.9-0.4,1.5-0.4C102.7,102.7,103.2,102.8,103.6,103.1z M101,103.3c-0.3,0.3-0.5,0.7-0.7,1.1
			c-0.2,0.5-0.2,1.1-0.2,1.7c0,0.6,0.1,1.2,0.3,1.7c0.2,0.5,0.4,0.9,0.7,1.1c0.3,0.3,0.7,0.4,1,0.4c0.4,0,0.7-0.1,1-0.4
			c0.3-0.3,0.5-0.7,0.7-1.1c0.2-0.5,0.2-1.1,0.2-1.7c0-0.6-0.1-1.2-0.3-1.7c-0.2-0.5-0.4-0.9-0.7-1.1c-0.3-0.3-0.7-0.4-1-0.4
			C101.7,102.9,101.3,103,101,103.3z"/>
		<path class="st0" d="M116.2,103.1c-0.1,0.1-0.2,0.1-0.2,0.3c0,0.1-0.1,0.3-0.1,0.5v5.5h-0.2l-3.9-6v4.9c0,0.2,0,0.4,0.1,0.5
			c0,0.1,0.1,0.2,0.2,0.3c0.1,0.1,0.3,0.1,0.5,0.1v0.2c-0.2,0-0.5,0-0.9,0c-0.4,0-0.6,0-0.9,0v-0.2c0.2,0,0.4,0,0.5-0.1
			c0.1-0.1,0.2-0.1,0.2-0.3c0-0.1,0.1-0.3,0.1-0.5v-4.5c0-0.2,0-0.4-0.1-0.5c0-0.1-0.1-0.2-0.2-0.2c-0.1,0-0.3-0.1-0.5-0.1v-0.2
			c0.2,0,0.5,0,0.9,0c0.3,0,0.5,0,0.7,0l3.2,5v-3.9c0-0.2,0-0.4-0.1-0.5c0-0.1-0.1-0.2-0.2-0.3c-0.1-0.1-0.3-0.1-0.5-0.1v-0.2
			c0.2,0,0.5,0,0.9,0c0.4,0,0.6,0,0.9,0v0.2C116.5,103,116.3,103,116.2,103.1z"/>
	</g>
	<g>
		<path class="st1" d="M77.6,13.7c4.7-2.4,8.9-4.9,12.6-7.2c-1.9-0.2-4-0.4-6-0.7C74.2,4.5,65.3,2.4,59.3,0c3.2,4,7.2,10,11.4,17
			C72.9,16,75.2,14.9,77.6,13.7z"/>
		<path class="st1" d="M95.1,21c0.2,3.7,0.6,7.1,1.3,10.1c0.1-0.3,0.2-0.6,0.4-0.9c4.4-10.3,9.7-18.9,14.1-23.8
			c-4,0.6-9.2,0.7-15.2,0.4C95.1,10.9,94.9,15.9,95.1,21z"/>
		<path class="st1" d="M78.8,28.5c-0.7-0.3-1.4-0.5-2.1-0.8c6,11.1,10.5,21.3,12.5,27.9c0.6-5.3,2.4-12.3,5.3-19.9
			C90.5,33.5,85,30.9,78.8,28.5z"/>
	</g>
</g>
<g id="XMLID_53_">
</g>
<g id="XMLID_54_">
</g>
<g id="XMLID_55_">
</g>
<g id="XMLID_56_">
</g>
<g id="XMLID_57_">
</g>
<g id="XMLID_58_">
</g>
<g id="XMLID_59_">
</g>
<g id="XMLID_60_">
</g>
<g id="XMLID_61_">
</g>
<g id="XMLID_62_">
</g>
<g id="XMLID_63_">
</g>
<g id="XMLID_64_">
</g>
<g id="XMLID_65_">
</g>
<g id="XMLID_66_">
</g>
<g id="XMLID_67_">
</g>
</svg>
